<svg version="1.1" viewBox="223.56030534351146 500.1216 531.2628135223556 537.5999999999999" xmlns:xlink="http://www.w3.org/1999/xlink" xmlns="http://www.w3.org/2000/svg" style="max-height: 500px" width="531.2628135223556" height="537.5999999999999">
<g id="surface1">
<path data-index="0" d="M 336.800781 506.570312 C 288.699219 514.148438 248.429688 548.472656 233.640625 594.5 C 227.238281 614.429688 227.621094 604.398438 227.242188 761.5 C 227 863.199219 227.230469 907.386719 228.035156 914.5 C 229.390625 926.398438 232.996094 940.832031 237.007812 950.398438 C 243.421875 965.699219 256.621094 984.257812 270 996.789062 C 281.132812 1007.214844 300.101562 1018.238281 316.5 1023.808594 C 337.296875 1030.875 325.5 1030.371094 480.5 1030.789062 C 625.800781 1031.179688 633.609375 1031.007812 650.398438 1027.03125 C 702.992188 1014.578125 743.3125 969.199219 749.9375 915 C 750.785156 908.078125 751.003906 866.398438 750.75 761.5 C 750.402344 619.300781 750.375 617.386719 748.308594 608.5 C 742.304688 582.699219 732.179688 563.628906 714.855469 545.5 C 705.058594 535.25 696.398438 528.398438 685.300781 522.109375 C 676.429688 517.089844 660.398438 510.648438 649.601562 507.761719 L 641.5 505.601562 L 493.5 505.398438 C 372.699219 505.238281 343.902344 505.449219 336.800781 506.570312 Z M 535.351562 613.300781 C 537.347656 614.832031 540.019531 618 541.25 620.300781 C 543.46875 624.4375 543.503906 625.148438 543.800781 668.75 L 544.101562 713 L 587.800781 713 C 636.398438 713 636.511719 713.015625 642.3125 719.898438 C 646.96875 725.425781 647.183594 727.800781 646.828125 770 L 646.5 809.601562 L 643.699219 813.898438 C 641.761719 816.878906 639.300781 818.9375 635.699219 820.601562 L 630.5 823 L 587.949219 823 C 555.351562 823 545.050781 822.714844 543.898438 821.773438 C 539.898438 818.507812 519.6875 787.414062 520.316406 785.5 C 521.101562 783.121094 562.300781 774.835938 597.5 769.976562 C 606.898438 768.675781 611.796875 767.117188 606.699219 767.039062 C 603.523438 766.996094 565.398438 760.867188 550 757.925781 C 537.898438 755.617188 520.828125 751.242188 519.855469 750.199219 C 519.492188 749.8125 524.605469 741.449219 531.25 731.550781 C 540.378906 717.949219 542.597656 714.046875 540.398438 715.449219 C 538.804688 716.46875 530.648438 721.902344 522.25 727.550781 C 508.351562 736.894531 506.910156 737.632812 505.980469 735.898438 C 502.777344 729.941406 492.273438 675.601562 490.363281 655.101562 C 489.996094 651.199219 489.429688 648 489.101562 648 C 488.769531 648 487 658 485.167969 670.199219 C 480.515625 701.199219 473.484375 734.914062 471.199219 737.199219 C 470.417969 737.984375 441.300781 718.582031 436.800781 714.277344 L 434 711.601562 L 434 669.550781 C 434 643.25 434.394531 626.078125 435.054688 623.699219 C 436.332031 619.101562 441.316406 613.199219 445.5 611.335938 C 447.871094 610.277344 457.199219 610.050781 490.101562 610.25 L 531.699219 610.5 Z M 446.25 730.949219 C 452.714844 740.550781 458 748.941406 458 749.601562 C 458 750.824219 448.398438 753.714844 435 756.527344 C 422.699219 759.109375 375.230469 767 372 767 C 366.570312 767 368.898438 768.726562 375.300781 769.441406 C 383.109375 770.316406 408.898438 774.328125 424 777.019531 C 443.5 780.496094 457 784.332031 457 786.398438 C 457 787.800781 437.960938 817.199219 434.785156 820.699219 L 432.699219 823 L 391.101562 823 C 364 823 348.105469 822.617188 345.5 821.898438 C 342.988281 821.210938 339.957031 819.199219 337.355469 816.5 C 331.144531 810.058594 330.820312 807.300781 331.1875 764.199219 C 331.488281 728.898438 331.582031 727.347656 333.636719 723.5 C 336.199219 718.699219 338.429688 716.585938 343 714.609375 C 345.976562 713.328125 353.101562 713.128906 390.5 713.300781 L 434.5 713.5 Z M 472.898438 804.25 C 474.054688 807.6875 476.15625 815.898438 477.566406 822.5 C 480.21875 834.898438 487.941406 882.273438 488.0625 886.898438 C 488.21875 892.75 489.898438 884.898438 492.96875 864 C 497.914062 830.300781 504 801.984375 507.003906 798.699219 C 507.660156 797.984375 530.898438 813.066406 540.101562 820.171875 L 543.5 822.800781 L 543.5 911.699219 L 540.5 916.601562 C 538.417969 920 536.136719 922.1875 533.050781 923.75 C 528.660156 925.96875 528.050781 926 489.25 926 C 456.148438 926 449.328125 925.761719 446.300781 924.492188 C 441.554688 922.507812 439.292969 920.398438 436.652344 915.5 C 434.566406 911.621094 434.488281 910.148438 434.148438 867.351562 L 433.800781 823.199219 L 437.398438 820.460938 C 443.199219 816.042969 469.382812 798.097656 470.101562 798.050781 C 470.480469 798.023438 471.757812 800.851562 472.898438 804.25" style="stroke:none;fill-rule:nonzero;fill: #ffffff;fill-opacity:1;"/>
<path data-index="1" d="M 1681.898438 658.398438 C 1658.898438 662.492188 1638.191406 673.527344 1622.761719 689.898438 C 1602.460938 711.453125 1593 736 1593 767.101562 C 1593 798.800781 1603.101562 825.164062 1623.109375 845.699219 C 1638.941406 861.953125 1655.5 871.457031 1676.300781 876.230469 C 1690.398438 879.46875 1713.828125 879.179688 1727.5 875.601562 C 1736.480469 873.25 1749 867.777344 1759 861.839844 L 1762.601562 859.699219 L 1775.898438 873 L 1789.199219 886.300781 L 1802.601562 872.898438 C 1810 865.5 1816 859.007812 1816 858.398438 C 1816 857.796875 1810.050781 851.484375 1802.851562 844.449219 L 1789.699219 831.601562 L 1791.328125 829 C 1799.519531 815.96875 1805.148438 801.300781 1807.480469 786.898438 C 1813.558594 749.398438 1801.710938 711.328125 1776.398438 687.019531 C 1761.238281 672.460938 1745.101562 663.679688 1725.5 659.320312 C 1715.988281 657.207031 1691.5 656.6875 1681.898438 658.398438 Z M 1717.398438 699.605469 C 1736.640625 704.296875 1754.511719 723.101562 1760.621094 745.101562 C 1761.980469 749.980469 1762.410156 755.300781 1762.449219 767.5 C 1762.488281 781.601562 1762.21875 784.425781 1760.101562 791.300781 C 1758.78125 795.601562 1757.410156 799.277344 1757.050781 799.5 C 1756.691406 799.71875 1748.589844 792.050781 1739.050781 782.449219 C 1729.511719 772.851562 1721.429688 765 1721.101562 765 C 1720.441406 765 1697.910156 789.5 1696.828125 791.398438 C 1696.46875 792.023438 1703.738281 800.300781 1713.601562 810.5 C 1723.171875 820.398438 1731.011719 828.859375 1731.019531 829.300781 C 1731.058594 830.539062 1721.300781 834.726562 1714 836.605469 C 1706.351562 838.578125 1690.5 838.058594 1682.699219 835.578125 C 1665.980469 830.261719 1650.820312 815.699219 1643.589844 798 C 1639.609375 788.257812 1637.679688 775.398438 1638.328125 763 C 1639 750.199219 1640.800781 743.105469 1646.179688 732 C 1649.480469 725.199219 1651.921875 721.894531 1658.398438 715.476562 C 1674.660156 699.363281 1694.5 694.027344 1717.398438 699.605469" style="fill-rule: nonzero; fill: #ffffff; fill-opacity: 1; opacity: 1;"/>
<path data-index="2" d="M 860 767.5 L 860 875 L 905.101562 875 L 904.800781 813 C 904.636719 778.898438 904.792969 751 905.148438 751 C 905.507812 751 907.496094 754.050781 909.550781 757.75 C 911.621094 761.480469 915.824219 768.300781 918.949219 773 C 922.054688 777.671875 931.109375 791.75 939.050781 804.25 L 953.5 827 L 985.5 827 L 989.898438 820.300781 C 993.980469 814.082031 1006.371094 794 1025.070312 763.300781 C 1029.148438 756.601562 1032.730469 751.078125 1033 751.050781 C 1033.28125 751.023438 1033.390625 778.898438 1033.25 813 L 1033 875 L 1078.300781 875 L 1077.199219 660.5 L 1061.351562 660.25 C 1052.648438 660.113281 1045 660.332031 1044.398438 660.734375 C 1043.339844 661.441406 984.582031 754.699219 975.117188 770.699219 C 972.753906 774.699219 970.394531 778 969.898438 778 C 968.878906 778 966.761719 774.800781 939.503906 732 C 919.378906 700.398438 897.152344 665.941406 894.546875 662.300781 C 892.953125 660.078125 892.351562 660 876.449219 660 L 860 660 L 860 767.5" style="stroke:none;fill-rule:nonzero;fill: #ffffff;fill-opacity:1;"/>
<path data-index="3" d="M 1117 767.648438 L 1117 875 L 1191 875 C 1231.699219 875 1265.339844 875 1265.75 875 C 1266.160156 875 1266.5 866.351562 1266.5 855.75 L 1266.5 836.5 L 1162 836 L 1162 785 L 1255.5 785 L 1255.398438 775.25 C 1255.339844 769.851562 1255.230469 761.148438 1255.148438 755.75 L 1255 746 L 1162 746 L 1162 700 L 1264 700 L 1264 661 L 1260.25 660.898438 C 1258.191406 660.84375 1225.148438 660.6875 1186.75 660.550781 L 1117 660.300781 L 1117 767.648438" style="stroke:none;fill-rule:nonzero;fill: #ffffff;fill-opacity:1;"/>
<path data-index="4" d="M 1297.5 660.851562 C 1297.230469 661.097656 1297 709.398438 1297 768.199219 L 1297 875.101562 L 1350.25 874.75 C 1401.648438 874.410156 1403.78125 874.324219 1411.5 872.175781 C 1421.101562 869.507812 1433.898438 863.519531 1443.199219 857.339844 C 1456.679688 848.390625 1471.171875 831.5 1477.980469 816.800781 C 1491.210938 788.246094 1491.039062 747.699219 1477.558594 718.5 C 1464.628906 690.492188 1438.699219 670.15625 1406.5 662.765625 C 1398.089844 660.835938 1394.25 660.691406 1347.75 660.550781 C 1320.351562 660.46875 1297.78125 660.601562 1297.5 660.851562 Z M 1400 702.902344 C 1411 706.800781 1416.179688 709.988281 1423.558594 717.398438 C 1435.210938 729.09375 1440.019531 739.800781 1442.058594 758.601562 C 1444.019531 776.601562 1440.941406 793.667969 1433.378906 806.699219 C 1428.769531 814.660156 1417.5 825.074219 1409 829.238281 C 1396.859375 835.1875 1391.601562 836 1365.199219 836 L 1342 836 L 1342 699.800781 L 1367.75 700.199219 C 1391.351562 700.566406 1394.039062 700.792969 1400 702.902344" style="fill-rule: nonzero; fill: #ffffff; fill-opacity: 1; opacity: 1;"/>
<path data-index="5" d="M 1519.25 660.75 L 1517 661.101562 L 1517.148438 761.300781 C 1517.230469 816.398438 1517.5 864.539062 1517.75 868.25 L 1518.199219 875 L 1563.101562 875 L 1562.75 767.851562 L 1562.398438 660.699219 L 1541.949219 660.550781 C 1530.75 660.46875 1520.480469 660.558594 1519.25 660.75" style="stroke:none;fill-rule:nonzero;fill: #ffffff;fill-opacity:1;"/>
<path data-index="6" d="M 1840.699219 660.75 C 1838.980469 661.179688 1838.921875 664.449219 1839.25 733.851562 C 1839.589844 804.550781 1839.660156 806.71875 1841.769531 814.699219 C 1847.53125 836.5 1858.339844 852.265625 1875.898438 864.492188 C 1899.539062 880.949219 1940.898438 883.550781 1967.5 870.25 C 1989.03125 859.484375 2003.128906 841.800781 2009.78125 817.199219 L 2012.398438 807.5 L 2012.449219 734.148438 L 2012.5 660.800781 L 1990.25 660.699219 L 1968 660.601562 L 1967.710938 731.601562 C 1967.390625 809 1967.558594 806.707031 1961.429688 818 C 1957.660156 824.929688 1949.398438 832.3125 1942.300781 835.089844 C 1934.140625 838.28125 1920.199219 838.269531 1910.699219 835.066406 C 1898.980469 831.117188 1890.71875 821.601562 1886.238281 806.898438 C 1884.808594 802.175781 1884.558594 792.648438 1884.25 730.949219 L 1883.898438 660.398438 L 1863.199219 660.351562 C 1851.800781 660.320312 1841.691406 660.503906 1840.699219 660.75" style="stroke:none;fill-rule:nonzero;fill: #ffffff;fill-opacity:1;"/>
<path data-index="7" d="M 2051.5 660.800781 C 2050.898438 661.398438 2050.800781 874.5 2051.398438 875.101562 C 2051.621094 875.320312 2085.398438 875.386719 2126.398438 875.25 L 2201 875 L 2201 836 L 2095.101562 836 L 2095 785 L 2189 785 L 2189 746 L 2095.5 745.5 L 2095 700 L 2199.101562 700 L 2198.5 660.5 L 2125.25 660.398438 C 2084.949219 660.34375 2051.78125 660.523438 2051.5 660.800781" style="stroke:none;fill-rule:nonzero;fill: #ffffff;fill-opacity:1;"/>
<path data-index="8" d="M 2232.25 660.800781 L 2228 661.101562 L 2228 727.300781 C 2228 793 2228.488281 805.9375 2231.449219 817.5 C 2233.648438 826.101562 2242.011719 842.386719 2247.96875 849.699219 C 2265.351562 871 2297.199219 882.128906 2329 878 C 2365.371094 873.277344 2388.921875 852.5 2399.269531 816 C 2401.339844 808.71875 2401.410156 806.351562 2401.75 734.449219 L 2402.101562 660.398438 L 2379.800781 660.550781 L 2357.5 660.699219 L 2357 732.101562 C 2356.5 802.898438 2356.480469 803.554688 2354.21875 810.199219 C 2350.148438 822.199219 2340.910156 831.757812 2329.601562 835.691406 C 2322.101562 838.296875 2307.5 837.992188 2299.800781 835.066406 C 2288.121094 830.632812 2280.328125 822 2275.828125 808.5 C 2273.5 801.511719 2273.5 801.398438 2273 731 L 2272.5 660.5 L 2254.5 660.5 C 2244.601562 660.5 2234.589844 660.636719 2232.25 660.800781" style="stroke:none;fill-rule:nonzero;fill: #ffffff;fill-opacity:1;"/>
<path data-index="9" d="M 2439.621094 660.898438 C 2439.441406 661.230469 2439.410156 665.800781 2439.550781 671 C 2439.691406 676.226562 2439.839844 724.25 2439.898438 777.75 L 2440 875 L 2589 875 L 2589 836 L 2484 836 L 2484 785 L 2577 785 L 2577 746 L 2484 746 L 2484 700 L 2587 700 L 2587 661 L 2582.800781 660.859375 C 2567 660.335938 2439.898438 660.371094 2439.621094 660.898438" style="stroke:none;fill-rule:nonzero;fill: #ffffff;fill-opacity:1;"/>
</g>
</svg>